<svg width="247" height="32" viewBox="0 0 247 32" fill="none" xmlns="http://www.w3.org/2000/svg">
<g clip-path="url(#clip0_2_2)">
<path d="M6.38573 12.8482L6.34439 0.199782L3.25142 0.158447C1.16417 0.158447 0.103329 0.172226 0.0826631 0.199782C0.0275544 0.254895 0 4.4986 0 12.924V25.5724C0.723302 26.2682 1.79792 27.3085 3.23075 28.6863C4.66358 30.0642 5.7382 31.1044 6.4615 31.8002H31.7564V25.4967H6.38573V12.8482Z" fill="white"/>
<path d="M61.0191 25.2555H42.0686V0.117115H35.7656V25.4553C36.4613 26.1787 37.5015 27.2327 38.8999 28.6243C40.2914 30.0159 41.3315 31.0769 42.0342 31.7933H61.1431V25.4484L67.4049 31.7107V0H61.0191V25.2555Z" fill="white"/>
<path d="M71.538 3.169V6.338C72.9295 6.338 75.0168 6.35178 77.7998 6.37933C80.5828 6.40689 82.67 6.42067 84.0615 6.42067L84.1028 19.1449V31.8347C84.8537 31.8622 85.9559 31.876 87.4162 31.876C88.8766 31.876 89.965 31.8898 90.6883 31.9173V6.42067C92.0798 6.42067 94.1808 6.40689 96.9914 6.37933C99.8019 6.35178 101.917 6.338 103.336 6.338L103.377 3.169V0H71.5036L71.5449 3.169H71.538Z" fill="white"/>
<path d="M113.848 19.3516L115.611 19.2689C116.893 19.2138 121.095 19.1862 128.217 19.1862L139.053 19.1449L138.971 17.2159C138.915 15.8243 138.888 14.791 138.888 14.1227V12.9584C136.105 12.986 131.923 12.9998 126.344 12.9998C120.764 12.9998 116.583 13.0136 113.8 13.0411V6.66178H138.888V0.358231H126.24L113.634 0.399565L107.49 6.66178V13.0824H113.751L107.49 19.3447V31.9104L117.044 31.8278C124.057 31.7727 129.299 31.7451 132.785 31.7451H139.005V25.5242L126.399 25.6069L113.793 25.6482L113.834 22.5206V19.3516H113.848Z" fill="white"/>
<path d="M143.076 6.50333V12.7656H149.42L143.076 19.1104V31.7589H149.496V19.1518H162.144L174.75 19.1104V12.8069L162.144 12.7656H149.496V6.54467H162.144L174.75 6.50333C174.777 5.77998 174.791 4.71905 174.791 3.31367C174.791 1.90829 174.805 0.861138 174.832 0.158447H149.42L143.076 6.50333Z" fill="white"/>
<path d="M185.062 0.117111L178.842 6.33799V25.6482L185.186 31.9931H204.254L210.598 25.6482V6.34488L204.378 0.117111H185.069H185.062ZM204.329 25.6138H185.138V6.54467H204.329V25.6138Z" fill="white"/>
<path d="M220.993 12.8482L220.952 0.199782L217.859 0.158447C215.771 0.158447 214.711 0.172226 214.69 0.199782C214.635 0.254895 214.607 4.4986 214.607 12.924V25.5724C215.331 26.2682 216.405 27.3085 217.838 28.6863C219.271 30.0642 220.345 31.1044 221.069 31.8002H246.357V25.4967H220.986V12.8482H220.993Z" fill="white"/>
</g>
<defs>
<clipPath id="clip0_2_2">
<rect width="246.364" height="32" fill="white"/>
</clipPath>
</defs>
</svg>
